<?xml version="1.0" standalone="no"?>
<!DOCTYPE svg PUBLIC "-//W3C//DTD SVG 20010904//EN"
 "http://www.w3.org/TR/2001/REC-SVG-20010904/DTD/svg10.dtd">
<svg version="1.0" xmlns="http://www.w3.org/2000/svg"
 width="1080.000000pt" height="1080.000000pt" viewBox="0 0 1080.000000 1080.000000"
 preserveAspectRatio="xMidYMid meet">
<metadata>
Created by potrace 1.11, written by Peter Selinger 2001-2013
</metadata>
<g transform="translate(0.000000,1080.000000) scale(0.100000,-0.100000)"
fill="#000000" stroke="none">
<path d="M3325 9524 c-542 -44 -992 -256 -1370 -646 -130 -133 -168 -180 -272
-335 -153 -229 -277 -511 -347 -791 -65 -260 -80 -389 -80 -712 -1 -181 4
-323 12 -390 92 -724 367 -1400 820 -2010 343 -462 701 -832 1522 -1575 412
-372 650 -597 851 -803 389 -399 684 -777 900 -1155 38 -67 73 -123 77 -125 5
-1 36 49 70 111 35 62 93 160 130 218 353 549 692 916 1622 1754 991 893 1465
1414 1815 1995 283 471 455 970 521 1520 22 179 25 671 6 825 -38 294 -117
559 -246 820 -135 273 -265 454 -486 675 -384 384 -802 574 -1345 610 -855 57
-1577 -415 -2033 -1328 -60 -120 -68 -131 -76 -110 -165 390 -342 660 -579
885 -308 291 -706 488 -1105 548 -102 15 -322 26 -407 19z"/>
</g>
</svg>
